<?xml version="1.0" encoding="UTF-8"?>
<svg id="Layer_1" xmlns="http://www.w3.org/2000/svg" version="1.1" viewBox="0 0 823.8405151 483.4158325">
  <!-- Generator: Adobe Illustrator 29.4.0, SVG Export Plug-In . SVG Version: 2.1.0 Build 152)  -->
  <defs>
    <style>
      .st0 {
        fill: #fddd00;
      }

      .st1 {
        fill: #146eb4;
      }
    </style>
  </defs>
  <g id="The_Big_5">
    <path class="st1" d="M85.7687988,341.3104553h53.4783173c4.5815277,0,9.2250824-.5077515,13.942276-1.5271606,4.7094421-1.0155334,8.977005-2.8023987,12.7949524-5.348999,3.8218231-2.5427246,6.9381866-5.8529053,9.3607483-9.9344177,2.4186707-4.0698547,3.628006-9.0351562,3.628006-14.8957825,0-6.3606567-1.5930634-11.5158081-4.7753296-15.4694519-3.186142-3.9458313-7.1940002-6.9382019-12.0313568-8.9770203-4.8412323-2.0388184-10.0623169-3.4380798-15.6632538-4.2016602s-10.8258972-1.1473083-15.6593628-1.1473083h-45.0749664v61.5018005h-.0000305ZM85.7687988,229.3846893h43.1640625c4.5854034,0,9.1010437-.5038757,13.5624237-1.5271606,4.4536133-1.0155334,8.4614868-2.6744995,12.0313416-4.9652557,3.5621338-2.2907715,6.4265442-5.3490143,8.5932922-9.1669312,2.1628418-3.8218231,3.2481537-8.4033813,3.2481537-13.7523651,0-5.6009369-1.2132111-10.2522278-3.6280212-13.942276-2.4225464-3.6900177-5.5389099-6.5544586-9.360733-8.5971375-3.8179474-2.0349426-8.151413-3.5001373-12.9887543-4.3916168-4.8373413-.8876343-9.5467834-1.3372498-14.1283264-1.3372498h-40.4934235v57.6799774l-.0000153.0000153ZM26.1779022,121.2807236h100.8479233c11.7096481,0,23.4890518.8294983,35.3304977,2.480751,11.8414307,1.6627808,22.473526,4.9691315,31.896286,9.9343567,9.42276,4.9652557,17.0586395,11.9073181,22.9192963,20.8184509,5.8567505,8.9188538,8.7909546,20.7602844,8.7909546,35.5243073,0,15.283371-4.2675629,27.9504242-12.7988129,38.0088654-8.535141,10.0661926-19.8067932,17.2601776-33.8110809,21.5820007v.7674866c8.9149933,1.2752075,17.004364,3.7597809,24.2604065,7.4459534,7.256012,3.6977844,13.496521,8.4033508,18.7214661,14.1360779,5.2133331,5.7288513,9.2212067,12.4111938,12.0274963,20.0509644,2.8024139,7.6436462,4.2055511,15.7950134,4.2055511,24.4503174,0,14.2678528-3.0582275,26.16745-9.1708069,35.7142639-6.1125793,9.5545349-14.0042877,17.2563171-23.6828766,23.1130676-9.6824646,5.864502-20.5664978,10.0623169-32.6637573,12.605011-12.0972443,2.5504456-24.1286163,3.8218079-36.0940704,3.8218079H26.1779022V121.2807236Z"/>
    <rect class="st1" x="267.2133179" y="206.0836182" width="57.3001099" height="185.6488647"/>
    <path class="st1" d="M416.1902161,297.7630615c0,6.1125793,1.1434326,11.9073181,3.4380493,17.3803711,2.2907715,5.4807434,5.5389404,10.3103638,9.7406006,14.5158997,4.2055359,4.2016602,9.0351562,7.5816345,14.5159302,10.1243286,5.473053,2.5466003,11.5197144,3.8179321,18.1478271,3.8179321,6.3606567,0,12.3491821-1.2713318,17.95401-3.8179321,5.5970764-2.5426941,10.5042114-5.9226685,14.7058716-10.1243286,4.1977539-4.2055359,7.4498291-9.0351562,9.7405396-14.5158997,2.2907715-5.473053,3.4381104-11.2677917,3.4381104-17.3803711,0-6.1126099-1.1473389-11.8995667-3.4381104-17.3803711-2.2907104-5.4769287-5.5427856-10.31427-9.7405396-14.5159302-4.2016602-4.2016602-9.1088257-7.5777283-14.7058716-10.1204529-5.6048279-2.5427094-11.5933533-3.8218231-17.95401-3.8218231-6.6281128,0-12.6747742,1.2791138-18.1478271,3.8218231-5.4807739,2.5427246-10.3103943,5.9187927-14.5159302,10.1204529-4.2016602,4.2016602-7.4498291,9.039032-9.7406006,14.5159302-2.2946167,5.4807739-3.4380493,11.2677612-3.4380493,17.3803711M560.5859375,376.0715637c0,35.1444397-8.8530273,61.8196716-26.5473633,80.0333862-17.7059326,18.2020874-44.6330566,27.3108826-80.7930298,27.3108826-16.5586548,0-32.8536682-1.8489075-48.8967896-5.5389404-16.0431213-3.6977844-30.8148804-10.8879089-44.3114014-21.585907l31.7024841-47.3695984c8.9150085,7.3878174,18.2757568,13.2445679,28.0822449,17.5741577,9.7987366,4.3295898,20.5626221,6.4963074,32.276123,6.4963074,17.5703125,0,30.4970398-4.2714539,38.7724915-12.7988281,8.2753906-8.5351562,12.4189148-19.4230652,12.4189148-32.6598816v-17.95401h-.7674561c-6.6280823,8.9188843-14.8414917,15.2174988-24.6402283,18.9114075-9.806488,3.6822815-19.0393066,5.5350342-27.6907349,5.5350342-13.7523193,0-26.2333069-2.3527832-37.4352112-7.0661011-11.2096252-4.7094421-20.8223267-11.3298035-28.8419495-19.8648987-8.0234985-8.5274048-14.2019653-18.6517334-18.5276794-30.3691101-4.3334656-11.7096558-6.4963379-24.5704956-6.4963379-38.58255,0-12.221283,1.9690552-24.1906433,5.9226685-35.9041443,3.9458313-11.7135315,9.546814-22.027771,16.8105774-30.9466553,7.2560425-8.9072571,16.1012878-16.1012421,26.5473328-21.5781555,10.4382629-5.4730377,22.2796936-8.2134094,35.524292-8.2134094,8.1475525,0,15.5973511.8953552,22.3456116,2.6744843,6.748291,1.7829895,12.7988281,4.0737762,18.1439514,6.8761749,5.3528748,2.8062744,9.9344177,5.9187775,13.7523193,9.3568726,3.8218384,3.4380951,6.8761902,6.8180084,9.1669617,10.1204529h.7674561v-24.4464569h52.7147522v169.9894867Z"/>
    <path class="st1" d="M813.5204468,171.7054749h-107.3403931l-1.1434326,41.6369019c5.8528442-2.0349426,13.8724976-3.0582428,24.0626831-3.0582428,13.7523804,0,26.3612671,2.0388184,37.8189697,6.1164703,11.4616089,4.0737457,21.3262329,9.9925232,29.6055298,17.7602234,8.2715454,7.7715302,14.7058716,17.186554,19.2912598,28.2644043,4.5814819,11.0778198,6.8722534,23.4967957,6.8722534,37.2491455,0,15.2795105-2.6124878,28.9078369-7.8297119,40.8733215-5.2210693,11.9732056-12.4150391,22.0936584-21.5820312,30.3691101-9.1707764,8.2754211-20.0548096,14.5779114-32.6598511,18.9075012s-26.2992554,6.4924622-41.0670776,6.4924622c-23.4348145,0-43.0400391-5.7327271-58.8273315-17.186554-15.7950439-11.4654541-26.6131592-28.7760315-32.4661255-51.9511414l59.9707642-13.7523193c1.5272217,9.6785889,5.6009521,17.512146,12.2252197,23.4929199,6.6164551,5.9846802,14.895813,8.9731445,24.8302002,8.9731445,12.2213135,0,21.9657593-3.8179321,29.2217407-11.4577026,7.2598877-7.6397705,10.8879395-17.3183594,10.8879395-29.0357361,0-8.9072571-1.848938-16.2330627-5.5389404-21.9618835-3.6977539-5.7288818-8.5390015-10.31427-14.5159302-13.7523499-5.9885254-3.4380493-12.6748047-5.790863-20.0548096-7.0661011-7.3878174-1.2713318-14.7756958-1.9108887-22.1557007-1.9108887-9.4266357,0-18.911377.8953552-28.4620972,2.674469-9.5506592,1.7829895-18.7796021,4.2055359-27.6946411,7.2560425l3.0582275-149.3570709h163.4932251v50.4239197l.000061-.0000458Z"/>
    <polygon class="st1" points="0 0 0 18.5121765 27.0938206 18.5121765 27.0938206 94.9718475 48.0207939 94.9718475 48.0207939 18.5121765 75.1223679 18.5121765 75.1223679 0 0 0"/>
    <path class="st1" d="M144.0050201,37.0251236c-1.7442474-2.7713852-4.1822968-4.9419823-7.3103027-6.5040436-3.1318665-1.5659046-7.2444-2.348917-12.3414536-2.348917-2.4147873,0-4.6512909.3139973-6.7056122.9380283-2.058197.6279354-3.8489532,1.4302883-5.3683777,2.4148045-1.5194168.9845181-2.8140335,2.1008053-3.8877029,3.3528347-1.0736771,1.2519684-1.837265,2.5077782-2.2830124,3.7559013h-.2674484V.000828h-20.1207504v94.9756353h20.1207504v-32.4660416c0-2.1435089.1356659-4.2016716.4031143-6.1707649.2674484-1.9612846.8255997-3.7326584,1.6783447-5.2985649.844986-1.5620613,2.0775757-2.8140297,3.6861572-3.7559624,1.612442-.9379692,3.709404-1.4069862,6.3063812-1.4069862,2.5931015,0,4.5815353.5349007,5.9691696,1.6085472,1.3837509,1.0737076,2.4147949,2.4613495,3.0853577,4.1590309.6705627,1.7016411,1.0736694,3.5543976,1.2054443,5.5699768.1356812,2.0077744.2015686,3.9535637.2015686,5.8334656v31.9272919h20.1207428v-35.9506493c0-4.3799934-.3139496-8.4537354-.9380035-12.2096977-.6279297-3.7519989-1.8101349-7.0195465-3.5543671-9.7909889"/>
    <path class="st1" d="M178.2711334,54.9985542c.0891571-1.6085472.4728851-3.1512108,1.1395721-4.6279869.6705627-1.4729309,1.6124573-2.7714462,2.8179016-3.8916397,1.2093353-1.1123886,2.6628723-2.0310745,4.3605957-2.7442398,1.6977234-.7170677,3.6667786-1.077549,5.9032898-1.077549,3.6667786,0,6.6591034,1.2093239,8.9847412,3.6241264,2.3256531,2.4148026,3.4419708,5.3218651,3.3566895,8.7172852h-26.5628052l.0000153.0000038ZM224.9546814,62.3747406c0-5.1822853-.7170868-9.8801193-2.1473541-14.0817947s-3.4652252-7.8025589-6.1009674-10.7987518c-2.6396179-2.9961929-5.8606415-5.2986221-9.6591949-6.9071712-3.8024292-1.6086082-8.027359-2.4148045-12.6786652-2.4148045-5.0079041,0-9.7250824.8061962-14.1515656,2.4148045-4.4264984,1.6085491-8.2715759,3.9109783-11.5352325,6.9071712s-5.8373871,6.5970764-7.7133942,10.7987518c-1.8760223,4.2016716-2.8179169,8.8995056-2.8179169,14.0817947,0,5.190094.9418945,9.8840256,2.8179169,14.0856934,1.8760071,4.205574,4.4497375,7.8064575,7.7133942,10.8026581s7.1087341,5.2947159,11.5352325,6.9071732c4.4264832,1.6086044,9.1436768,2.4148026,14.1515656,2.4148026,5.2792206,0,10.372406-1.1201935,15.2950134-3.3566742,4.9148865-2.2326431,8.9886322-5.4071503,12.2057953-9.5196381l-14.0856781-10.3297958c-1.6977234,2.325676-3.690033,4.2249146-5.9691772,5.6978455-2.2791443,1.4767761-5.0776672,2.2132416-8.3839722,2.2132416-3.9380951,0-7.2444-1.139534-9.9266357-3.4187164-2.682251-2.2829742-4.4264984-5.3412094-5.2327271-9.1901398h46.6835632v-6.3064499Z"/>
  </g>
  <g id="Yellow_Spot">
    <path class="st0" d="M340.5662537,143.7922363c0,23.7836609-19.2835388,43.0671692-43.0671692,43.0671692-23.7836609,0-43.0671692-19.2835083-43.0671692-43.0671692,0-23.7835922,19.2835083-43.067131,43.0671692-43.067131,23.7836304,0,43.0671692,19.2835388,43.0671692,43.067131"/>
  </g>
</svg>